/* XPM */
static char *result[] = {
/* columns rows colors chars-per-pixel */
"32 32 195 2 ",
"   c #3A3B3E",
".  c #404345",
"X  c #414345",
"o  c #424346",
"O  c #414546",
"+  c #434547",
"@  c #444547",
"#  c #444647",
"$  c #444747",
"%  c #434548",
"&  c #444648",
"*  c #444748",
"=  c #454748",
"-  c #4A4D4E",
";  c #4A4E4E",
":  c #4B4F4F",
">  c #4C4F4F",
",  c #4E5151",
"<  c #4D5252",
"1  c #4E5252",
"2  c #505555",
"3  c #515556",
"4  c #515656",
"5  c #535758",
"6  c #535858",
"7  c #545958",
"8  c #545B59",
"9  c #55595A",
"0  c #555E5B",
"q  c #575B5C",
"w  c #575C5C",
"e  c #545E5D",
"r  c #565F5C",
"t  c #585C5C",
"y  c #585E5D",
"u  c #5A5F5F",
"i  c #56605E",
"p  c #5B615F",
"a  c #5D6261",
"s  c #5C6361",
"d  c #5E6362",
"f  c #5B6562",
"g  c #5C6562",
"h  c #5E6462",
"j  c #5C6663",
"k  c #5D6664",
"l  c #5E6764",
"z  c #5E6765",
"x  c #5E6864",
"c  c #5E6865",
"v  c #5F6A66",
"b  c #626564",
"n  c #606865",
"m  c #616A66",
"M  c #616B67",
"N  c #626B68",
"B  c #636D69",
"V  c #636C6A",
"C  c #636D6A",
"Z  c #646D6A",
"A  c #656D6A",
"S  c #646E6B",
"D  c #666E6B",
"F  c #676E6B",
"G  c #666F6B",
"H  c #666F6C",
"J  c #66706C",
"K  c #69716E",
"L  c #69736F",
"P  c #6A726F",
"I  c #6C7671",
"U  c #6E7671",
"Y  c #6C7672",
"T  c #6F7873",
"R  c #6E7874",
"E  c #6F7974",
"W  c #727673",
"Q  c #707873",
"!  c #757E78",
"~  c #757F78",
"^  c #77807A",
"/  c #78807B",
"(  c #79807B",
")  c #7A827C",
"_  c #7C847E",
"`  c #7D857F",
"'  c #7D8680",
"]  c #7E8680",
"[  c #7E8780",
"{  c #808884",
"}  c #818985",
"|  c #828A84",
" . c #858B87",
".. c #848C85",
"X. c #848C87",
"o. c #848D87",
"O. c #858E87",
"+. c #858C88",
"@. c #858D89",
"#. c #88908A",
"$. c #8B938F",
"%. c #8C948F",
"&. c #8E9790",
"*. c #8F9891",
"=. c #909893",
"-. c #909993",
";. c #909894",
":. c #919994",
">. c #929B95",
",. c #939B96",
"<. c #939B97",
"1. c #929C94",
"2. c #98A09C",
"3. c #98A19C",
"4. c #9CA29C",
"5. c #9DA39D",
"6. c #9EA49E",
"7. c #9FA59F",
"8. c #A2A9A2",
"9. c #A7ACA2",
"0. c #A5ADA4",
"q. c #ADB4A8",
"w. c #AEB4A9",
"e. c #AFB5A9",
"r. c #AFB5AA",
"t. c #B0B6AB",
"y. c #B0B6AC",
"u. c #B2B8AD",
"i. c #C7CAC6",
"p. c #CBCEC3",
"a. c #CCD1C3",
"s. c #CED3C7",
"d. c #CFD4C7",
"f. c #D0D5C8",
"g. c #D0D4C9",
"h. c #D1D5CA",
"j. c #D2D7CB",
"k. c #D3D7CC",
"l. c #D3D8CC",
"z. c #D5D9CD",
"x. c #D6DACE",
"c. c #D6DACF",
"v. c #D7DCD0",
"b. c #D9DDD2",
"n. c #D9DBD5",
"m. c #D9DCD5",
"M. c #DADCD6",
"N. c #DADDD6",
"B. c #DCDFD8",
"V. c #DDE0D9",
"C. c #DEE0DA",
"Z. c #DEE0DB",
"A. c #E0E2DE",
"S. c #E1E3DE",
"D. c #E2E4DF",
"F. c #E3E5E0",
"G. c #E4E6E1",
"H. c #E5E6E1",
"J. c #E5E7E2",
"K. c #E5E7E3",
"L. c #E7E8E3",
"P. c #EAECE7",
"I. c #EBECE7",
"U. c #F0F1E9",
"Y. c #F4F6E9",
"T. c #F5F7EA",
"R. c #F2F3EC",
"E. c #F2F3ED",
"W. c #F3F4ED",
"Q. c #F5F8EA",
"!. c #F6F8EC",
"~. c #F7F9ED",
"^. c #F8F9EE",
"/. c #F9FBEF",
"(. c #FAFBF4",
"). c #FBFBF4",
"_. c #FBFBF6",
"`. c #FBFCF5",
"'. c #FCFCF6",
"]. c #FDFDF6",
"[. c #FCFCF7",
"{. c #FCFCF8",
"}. c #FDFDF8",
"|. c #FDFDF9",
" X c #FEFDF8",
".X c #FEFEF8",
"XX c #FEFEF9",
"oX c #FFFEF9",
"OX c #FFFFFA",
"+X c #FFFFFB",
"@X c #FFFFFC",
"#X c #FFFFFD",
"$X c #FFFFFE",
"%X c white",
"&X c None",
/* pixels */
"&X&X&X&X&X&X&X&X&X&X&X&X&X&X&X&X&X&X&X&X&X&X&X&X&X&X&X&X&X&X&X&X",
"&X&X&X&X&X&X&X&X&X&X&X&X&X&X&X&X&X&X&X&X&X&X&X&X&X&X&X&X&X&X&X&X",
"&X&X&X&X&X&X&X&X&X&X&X&X&X&X&X&X&X&X&X&X&X&X&X&X&X&X&X&X&X&X&X&X",
"&X&X&X&X&X&X&X&X&X&X&X&X&X&X&X&X&X&X&X&X&X&X&X&X&X&X&X&X&X&X&X&X",
"&X&X&X&X&X&Xl x c n m M &X&X&X&X&X&X&X&X&X&X&X&X&X&X&X&X&X&X&X&X",
"&X&X&X&X&X&X+.3.<.:.>.' &X&X&X&X&X&X&X&X&X&X&X&X&X&X&X&X&X&X&X&X",
"&X&X&X&Xl +.i.I.K.C.l.e.~ i z M &X&X&X&X&X&X&X&X&X&X&X&X&X&X&X&X",
"&X&X&X&Xx 2.P.%X%X+X~.x.8.$.-.' &X&X&X&X&X&X&X&X&X&X&X&X&X&X&X&X",
"&X&X&X&Xc ,.F.%X#X}.(.W.L.B.l.e.~ i z M &X&X&X&X&X&X&X&X&X&X&X&X",
"&X&X&X&Xx =.S.%XXX_.[.+X%X+X~.x.8.$.-.' &X&X&X&X&X&X&X&X&X&X&X&X",
"&X&X&X&Xx ;.D.%XOX_._.{.XX.X(.W.L.B.l.e.~ i z M &X&X&X&X&X&X&X&X",
"&X&X&X&Xv =.V.+X X_._._._._.{.+X%X+X~.x.8.$.-.] &X&X&X&X&X&X&X&X",
"&X&X&X&XV &.j.!.).{._._._._._.{.XX.X(.W.L.B.k.w.^ e &X&X&X&X&X&X",
"&X&X&X&Xs ` w.z.R.OX[._._._._._._._.{.+X%X@X^.v.0./ &X&X&X&X&X&X",
"&X&X&X&X; p Q 6.F.$XXX_._._._._._._._.{.XXXX'.U.b.t.[ M &X&X&X&X",
"&X&X&X&Xo 1 0 @.Z.%XoX_._._._._._._._._._.|.#X.XT.f.1.N &X&X&X&X",
"&X&X&X&X# 6 g %.A.%XOX_._._._._._._._._.[.+X%X@XQ.d.*.B &X&X&X&X",
"&X&X&X&X$ ; 8  .M.@X.X_._._._._._.{.XX.X).E.G.m.g.u.] s &X&X&X&X",
"&X&X&X&X&X&XO W p./.`.{._._._._.{.+X%X@X~.z.4.} o.( d ; &X&X&X&X",
"&X&X&X&X&X&X  b 9.v.W.+X}.[.XX.X).E.H.n.s.q.! j C n 3 o &X&X&X&X",
"&X&X&X&X&X&X. 7 U 7.J.%X+X+X%X@X~.z.4.{ | _ T L Y H q # &X&X&X&X",
"&X&X&X&X&X&X= 2 r X.N.+X].W.H.n.s.q.! f M Z A D K h , @ &X&X&X&X",
"&X&X&X&X&X&X& 9 k #.h.Q.Y.c.5.{ | _ T L I G y 5 t , &X&X&X&X&X&X",
"&X&X&X&X&X&X$ : y ) y.a.a.r.! f M Z A F K h > X + @ &X&X&X&X&X&X",
"&X&X&X&X&X&X&X&X- a / O...` T L I G y 5 t < &X&X&X&X&X&X&X&X&X&X",
"&X&X&X&X&X&X&X&Xo 4 n J S Z A F K h > X + $ &X&X&X&X&X&X&X&X&X&X",
"&X&X&X&X&X&X&X&X% w H E R G y 5 t < &X&X&X&X&X&X&X&X&X&X&X&X&X&X",
"&X&X&X&X&X&X&X&X@ , h P P h > X + $ &X&X&X&X&X&X&X&X&X&X&X&X&X&X",
"&X&X&X&X&X&X&X&X&X&X, u u < &X&X&X&X&X&X&X&X&X&X&X&X&X&X&X&X&X&X",
"&X&X&X&X&X&X&X&X&X&X@ * * $ &X&X&X&X&X&X&X&X&X&X&X&X&X&X&X&X&X&X",
"&X&X&X&X&X&X&X&X&X&X&X&X&X&X&X&X&X&X&X&X&X&X&X&X&X&X&X&X&X&X&X&X",
"&X&X&X&X&X&X&X&X&X&X&X&X&X&X&X&X&X&X&X&X&X&X&X&X&X&X&X&X&X&X&X&X"
};
