/* XPM */
static char *result[] = {
/* columns rows colors chars-per-pixel */
"32 32 142 2 ",
"   c #8A3F2F",
".  c #8B4530",
"X  c #884F33",
"o  c #944831",
"O  c #845134",
"+  c #8A5634",
"@  c #9D5B32",
"#  c #A44D2E",
"$  c #A7572F",
"%  c #A8552F",
"&  c #B05D2F",
"*  c #BA5C2D",
"=  c #A55A30",
"-  c #856237",
";  c #8B6537",
":  c #937D3B",
">  c #B9612E",
",  c #A26232",
"<  c #B06638",
"1  c #BD6E3A",
"2  c #BA723A",
"3  c #B17A3C",
"4  c #D1752F",
"5  c #D1792F",
"6  c #C37D31",
"7  c #D07132",
"8  c #E47C2F",
"9  c #8D8B3E",
"0  c #8E913F",
"q  c #9B953B",
"w  c #91993F",
"e  c #9C983C",
"r  c #B98438",
"t  c #A39537",
"y  c #A1963A",
"u  c #B6993F",
"i  c #BA993F",
"p  c #CE871E",
"a  c #E38417",
"s  c #E8871D",
"d  c #FB8515",
"f  c #FF871D",
"g  c #FB8A1F",
"h  c #F89B14",
"j  c #F8941B",
"k  c #FA991C",
"l  c #F9AF03",
"z  c #EEBC1E",
"x  c #F9B314",
"c  c #F0BC10",
"v  c #FABE17",
"b  c #F9B51D",
"n  c #F2BF1C",
"m  c #FABE1C",
"M  c #DD8427",
"N  c #D28F29",
"B  c #D49329",
"V  c #C08A35",
"C  c #CB8931",
"Z  c #D6873B",
"A  c #E18C27",
"S  c #E4822E",
"D  c #EB842D",
"F  c #EB8D2C",
"G  c #FB8723",
"H  c #F68823",
"J  c #F98A21",
"K  c #F88F2F",
"L  c #FF9326",
"P  c #FA9D24",
"I  c #FB942B",
"U  c #F9982B",
"Y  c #F79135",
"T  c #FE9633",
"R  c #E0AD25",
"E  c #F9A325",
"W  c #F9A22B",
"Q  c #F7B320",
"!  c #FFB125",
"~  c #FAC500",
"^  c #FCCA04",
"/  c #FBC50A",
"(  c #FAC90A",
")  c #FAC217",
"_  c #FACD16",
"`  c #F3C31A",
"'  c #FAC41B",
"]  c #FACC18",
"[  c #FCD216",
"{  c #FFD913",
"}  c #FAC926",
"|  c #FAC932",
" . c #FACD3E",
".. c #FAD437",
"X. c #849C44",
"o. c #8D9A42",
"O. c #969440",
"+. c #909B41",
"@. c #90A443",
"#. c #E79D47",
"$. c #EE9C44",
"%. c #EE9D49",
"&. c #FA9D46",
"*. c #FC9E4D",
"=. c #FA9F54",
"-. c #F89D5A",
";. c #E7A251",
":. c #F1A452",
">. c #FAA456",
",. c #F9AC51",
"<. c #F9A45B",
"1. c #F9B152",
"2. c #F8A860",
"3. c #F9B979",
"4. c #F1C347",
"5. c #FAD744",
"6. c #FAD84B",
"7. c #FDE14A",
"8. c #FADD6D",
"9. c #FAE871",
"0. c #FFBA82",
"q. c #F5D2AD",
"w. c #F9D1AB",
"e. c #FAD5B9",
"r. c #FAE7A3",
"t. c #FBE1B8",
"y. c #FAF5BC",
"u. c #F9D6C7",
"i. c #FAE9C4",
"p. c #FAEBCE",
"a. c #FAE4D1",
"s. c #FDE7DE",
"d. c #FDEBDE",
"f. c #FAF4D4",
"g. c #FAF9DB",
"h. c #FAE9E1",
"j. c #FBEEEC",
"k. c #FAFCE2",
"l. c #FCF1EC",
"z. c #FAFEE9",
"x. c #FDF3FA",
"c. c #FAFFFF",
/* pixels */
"+.+.+.+.+.o.o.X.X.e A f f H g g H H H g f A y X.X.X.o.o.w +.+.+.",
"+.+.+.o.o.w y t t i ;.<.>.>.<.>.>.:.>.>.<.;.u t t y w w +.+.+.+.",
"+.+.+.o.X.e N s a #.q.d.a.a.a.a.a.a.a.a.d.q.#.a s N q X.o.+.+.+.",
"+.o.o.w q i %.>.>.3.l.c.c.c.c.c.c.c.c.c.c.l.3.*.>.:.i q w o.o.+.",
"o.o.w q p $.w.h.s.j.c.c.c.c.c.c.c.c.c.c.c.c.j.s.d.w.$.p q X.o.w ",
"w w q i %.0.l.c.z.f.a.u.a.a.a.a.a.a.a.a.a.a.f.z.c.l.0.%.i e w o.",
"X.y N :.e.x.c.z.9. .,.-.=.<.>.-.<.-.>.-.-.,. .9.z.c.x.e.:.N y o.",
"o.y A >.e.z.k.r.| l h j j j j j j j j j j h l | r.k.z.t.=.M t X.",
"X.O.2 Z 4.7.7. .W P b v n v v n v n v n v b P W  .6.7.4.Z 2 q X.",
"q y r B c ^ / x P P ' [ [ [ _ [ _ [ _ [ [ ' W P x / ^ c B r y q ",
"3 V R ` _ ) E P b ' ] _ ] _ _ ] _ _ _ _ [ ] ' Q E E ) _ ` R r 3 ",
"1 C n { [ n U K ` [ _ ] ] ] ] _ ] ] ] ] ] ] [ m I I m [ { ` C 1 ",
"1 C z [ [ m U U ' ] [ ] ] ] ] ] ] _ ] ] ] [ [ ' U U m [ [ n C 1 ",
"2 C z [ [ m U U m [ ] ] ] ] ] ] ] ] ] ] ] ] _ m U U m [ [ n C 1 ",
"2 C z [ [ m U U Q [ ] ] ] ] ] ] ] ] ] ] ] _ ] m U U m ] [ z C 2 ",
"1 C z [ [ ' U U ' [ ] ] ] ] ] ] ] ] ] ] ] ] [ n U U n [ [ z C 2 ",
"2 C z [ [ ' U U n [ _ ] ] ] ] ] _ ] ] ] ] _ [ m U U } _ [ z C 2 ",
"2 C z [ [ Q U U m [ ] ] ] ] ] ] ] ] ] ] ] _ _ m U U ` [ [ n C 2 ",
"2 C z { [ m U I n ] ] ] ] ] _ ] _ ] ] ] ] _ _ m K U Q [ { z C 2 ",
"< V Q ' [ ' E E ) _ _ _ ] ] ] _ ] ] ] ] ] _ _ n E E ' [ ] Q 6 < ",
"o & F ! ] [ ' ' / ( _ ] ] ] ] _ ] ] _ ] ] _ ( ( ' ' _ ] ! F & o ",
"+ = 7 F b ' ) } 5.5.} ( ( _ _ _ _ _ _ _ ( ] 5.5.} ) ' Q F 7 @ + ",
"O.: @ > F P k 1.i.y...^ ^ ( ( ( ^ ( ^ / ~ ..y.i.1.k P F * + : O.",
"X.O.O # 8 K G <.u.p.8...5.6.6.6.6.6.6.5.5.8.p.u.>.G K 8 # O O.@.",
"o.O.X # D U L Y &.3.i.z.g.g.g.g.g.g.g.g.k.i.3.&.Y L U D # + 9 +.",
"X.O.- = 7 D K K d &.e.j.h.h.h.h.s.h.d.j.j.e.&.d K K D 4 = ; O.+.",
"o.o.9 : @ * D I L T >.<.<.<.2.<.<.<.<.<.2.>.T L I D * @ : O.o.o.",
"o.o.+.O.- = 4 D S D J g J J J J H H g g g H S S D 4 = - 9 @.+.+.",
"+.+.+.o.0 : = # o * D I I L L L I L I I I D > # # = : 9 o.+.+.+.",
"+.+.+.+.@.0 ; O O @ 5 D S S S S S S S D S 5 , O X ; 0 @.o.o.+.+.",
"+.+.+.+.+.+.9 9 O.: , % = % = = $ $ $ $ % , : 9 9 9 +.+.+.+.+.+.",
"+.+.+.+.+.+.+.@.@.O.+   . . . . . . . .   + O.@.@.+.+.+.+.+.+.+."
};
