/* XPM */
static char *result[] = {
/* columns rows colors chars-per-pixel */
"32 32 76 1 ",
"  c #171512",
". c #141B1B",
"X c #1B1E1D",
"o c #231E19",
"O c #361E19",
"+ c #1F201E",
"@ c #22211D",
"# c #29231B",
"$ c #3A221A",
"% c #3A2724",
"& c #372E22",
"* c #3B2824",
"= c #41241E",
"- c #433628",
"; c #493B2B",
": c #533227",
"> c #5D3529",
", c #57392E",
"< c #61372E",
"1 c #63382E",
"2 c #6E3D2E",
"3 c #663B30",
"4 c #6C3D31",
"5 c #703F33",
"6 c #574431",
"7 c #674231",
"8 c #6C4133",
"9 c #6E4E39",
"0 c #744435",
"q c #7B4537",
"w c #734937",
"e c #7E4638",
"r c #774938",
"t c #7C4C39",
"y c #6D523A",
"u c #74543C",
"i c #7D523C",
"p c #75583E",
"a c #795A3E",
"s c #804739",
"d c #834A3A",
"f c #8C4E3C",
"g c #82543D",
"h c #8D523F",
"j c #85593F",
"k c #93523F",
"l c #835C41",
"z c #8A5C41",
"x c #965340",
"c c #985742",
"v c #945C43",
"b c #995B43",
"n c #826042",
"m c #8D6043",
"M c #8E6846",
"N c #926446",
"B c #9C6347",
"V c #926947",
"C c #9D6648",
"Z c #956A49",
"A c #9D6B4A",
"S c #9E714C",
"D c #9F7554",
"F c #A06E4B",
"G c #A3744E",
"H c #AA7655",
"J c #A87B53",
"K c #BA8E65",
"L c #C1976D",
"P c #C69F72",
"I c #C9A375",
"U c #D5B182",
"Y c #E2C18F",
"T c #EBCB97",
"R c #ECCC99",
"E c None",
/* pixels */
"EEEEEEEEEEEE9bggBBtciEEEEEEEEEEE",
"EEEEEEEEEE Z<GstGGcAwC-EEEEEEEEE",
"EEEEEEEEE-Fk4GqjGGtGekBaEEEEEEEE",
"EEEEEEEEaBkjxGCBGGGGbjkcVEEEEEEE",
"EEEEEE#AcfmGkGNbGGAGcjxxxF&EEEEE",
"EEEEE;zsdBGk4GdrBBfSr5xxddjyEEEE",
"EEEEpB1zGFfd<GdtGGkSwxxx<k4cZ@EE",
"EEoVcdZGbdfk0GrjGGjStfxk1x8kkC-E",
"E6CcdGGkqkhjcGFBGGGGblxc<c4xxxty",
"EigjGCdbrdAJkGhvGGmSbifd1G8xxx1B",
"EiAGBe1AjGFk1GdtGFxS05fGzB8xxc<G",
"lGGc4d1NGBdf1GdtbFcS8xeGGF4ddd1G",
"SCddkeGGkekk2G0iCGdSwxxtAJSdxx<G",
"9ljccGFkrkkgkGCBGGGGbzfx>AGG5x<B",
"EljzcBeBtfjGcGFbGGSGbGAt3C8N4x<G",
"EjSGke<GgZGb5GetGGdStxAGwA8xff<G",
"ZGFf4s1lGFx31G0tGGdS80sCGB4see<G",
"FbdfxdNGCsfx1AqebbfAwqkebGNdkx<G",
",ljxsAGcqxxx<BGGGAAx4fxx3cGFgk<G",
"ElldcFfb0xxfmFBCCBCxvdxx1bfFGm1G",
"EaCGxs<GtcfAGALLGKLGFBgx1G8ecGAC",
"uGGb0f<GtedBGGUUJRIJFCGz1G8fefGC",
"AFhseq<vCCBxGSUUGRIJCCGGAv4kkfsB",
"iljxxxzAjzBvBBCBCFGGCCGGFG0kkk<F",
"EnjxxACVGzmmmmmmGFBBxHKKkbf4fc<G",
"EptdGxxAi...X...8GACcPITxFBxdd1G",
"EuMzSBxZi.......4GCFbPYTxCBBbG>G",
"E9ljjgjAi.......8GggrPITqjjgl4SG",
"EnGNcxxFi.......8GxctADD0GGBA3FG",
"ElFVxkcFi.o++oXX4GxcFxxxCGGBA3GG",
"Epzzqeqz7>424551:Nqqtttttttqe3fz",
"OOO$$==EE**%%***EEEEEEEEEEEEEEEE"
};
