/* XPM */
static char *result[] = {
/* columns rows colors chars-per-pixel */
"32 32 149 2 ",
"   c #4D565B",
".  c #51585D",
"X  c #6D7D46",
"o  c #7A7659",
"O  c #545C61",
"+  c #676F78",
"@  c #636B72",
"#  c #697077",
"$  c #677379",
"%  c #6B747B",
"&  c #667C7B",
"*  c #6B797D",
"=  c #835D35",
"-  c #8D643A",
";  c #976A3E",
":  c #9D6A3F",
">  c #9D6F40",
",  c #926A41",
"<  c #9B734C",
"1  c #887853",
"2  c #A16A40",
"3  c #A47344",
"4  c #A97745",
"5  c #A57B48",
"6  c #AE7B48",
"7  c #B47748",
"8  c #B27D49",
"9  c #B87C4A",
"0  c #A17951",
"q  c #AA7E5C",
"w  c #DE5B48",
"e  c #CC6949",
"r  c #D86249",
"t  c #CF764D",
"y  c #26AC5F",
"u  c #32A259",
"i  c #3CA46B",
"p  c #3AAE6A",
"a  c #27B262",
"s  c #2AB665",
"d  c #2ABA67",
"f  c #2BBE69",
"g  c #37BD6C",
"h  c #3DB773",
"j  c #3CBC75",
"k  c #599454",
"l  c #688A54",
"z  c #49A75D",
"x  c #6DA45D",
"c  c #7AA35D",
"v  c #74A05A",
"b  c #5B9863",
"n  c #5D8A7A",
"m  c #598675",
"M  c #4D9F76",
"N  c #519073",
"B  c #749367",
"V  c #63817B",
"C  c #5EAE61",
"Z  c #4DB867",
"A  c #43B46A",
"S  c #43BF6A",
"D  c #55B465",
"F  c #5CB666",
"G  c #4AA376",
"H  c #4AA877",
"J  c #52AD7F",
"K  c #40B274",
"L  c #47B078",
"P  c #42BB79",
"I  c #2CC36C",
"U  c #2DC96F",
"Y  c #35C46F",
"T  c #3AC46D",
"R  c #34C96F",
"E  c #2ECC71",
"W  c #35C473",
"Q  c #38C475",
"!  c #32CB72",
"~  c #3CCD79",
"^  c #42CC78",
"/  c #46C674",
"(  c #42D17F",
")  c #9F854D",
"_  c #99894F",
"`  c #8B9153",
"'  c #A3824C",
"]  c #B5824C",
"[  c #BB844D",
"{  c #BD8650",
"}  c #B78858",
"|  c #B3865A",
" . c #B18C66",
".. c #BF9661",
"X. c #A4907D",
"o. c #B19478",
"O. c #BB9772",
"+. c #C0874F",
"@. c #C9814F",
"#. c #C88450",
"$. c #C38A51",
"%. c #C4925C",
"&. c #CA945E",
"*. c #C99663",
"=. c #6F7980",
"-. c #717B83",
";. c #669D87",
":. c #699B88",
">. c #71948C",
",. c #5AA783",
"<. c #54AC80",
"1. c #5BBB83",
"2. c #60A285",
"3. c #5DCB80",
"4. c #44D180",
"5. c #59D68E",
"6. c #53D58A",
"7. c #69DA99",
"8. c #71DC9E",
"9. c #77DEA2",
"0. c #A29D8A",
"q. c #8FAB85",
"w. c #BDA58D",
"e. c #C1AD88",
"r. c #CFAE8C",
"t. c #C6A381",
"y. c #DBBB9C",
"u. c #D8BCA2",
"i. c #97C490",
"p. c #98CC95",
"a. c #BEC99D",
"s. c #84E1AB",
"d. c #8DE3B2",
"f. c #C8C196",
"g. c #DCC1A6",
"h. c #E5C3A0",
"j. c #E7C9AB",
"k. c #EBCDAE",
"l. c #ECCFB1",
"z. c #BFEFD3",
"x. c #CCCCC1",
"c. c #E0D5CB",
"v. c #DCE1D8",
"b. c #C8F1DA",
"n. c #E3E5DC",
"m. c #D9F6E5",
"M. c #E6F9EE",
"N. c #F8F7F6",
"B. c None",
/* pixels */
"B.B.B.B.B.B.B.B.B.B.B.B.B.B.B.B.B.B.B.B.B.B.B.B.B.B.B.B.B.B.B.B.",
"B.B.B.B.B.B.B.B.B.B.B.B.-.-.-.-.-.B.B.B.B.B.B.B.B.B.B.B.B.B.B.B.",
"B.B.B.B.B.B.B.B.B.B.B.-.-.-.-.-.-.-.-.-.-.% % . B.B.B.B.B.B.B.B.",
"B.B.B.B.B.B.B.B.=.$ -.-.-.-.-.-.-.-.% % % % % % % B.B.B.B.B.B.B.",
"B.B.B.B.B.B.B.B.-.-.-.-.=.% % % % % % % % % # % O B.B.B.B.B.B.B.",
"B.B.B.B.B.B.B.=.-.-.-.% % % % % % % % % % % % % % =.-.# B.B.B.B.",
"B.B.B.B.B.B.B.-.-.-.% % % % $ % % % % % % % % % % % -.# B.B.B.B.",
"B.B.B.B.B.B.-.-.% % % % N i m & % % % $ % % % % % % -.$ B.B.B.B.",
"B.B.B.B.B.B.B.% % % % n s s s s i % % % % % % % % % -.B.B.B.B.B.",
"B.B.B.B.B.B.B.% % V H W E U I f s m % $ % % $ % % =.-.B.B.B.B.B.",
"B.B.B.B.B.B.B.% % W E E E E E E E G & & % % V V % % -.B.B.B.B.B.",
"B.B.B.B.B.B.  % % h E <.>.,.<.Q E E W Q L P W h % =.-.B.B.B.B.B.",
"B.B.B.B.B.B.# % % M E E E j P ! E E E 2.:.:.;.j % -.B.B.B.B.B.B.",
"B.B.B.B.B.B.# % % h E ~ 9.7.5.E E E E E E E E W & =.B.B.B.B.B.B.",
"B.B.B.B.B.B.@ % G U I ~ z.M.8.E ! ! E 7.m.b.5.E V B.B.B.B.B.B.B.",
"B.B.B.B.B.B.B.n E E s I E ~ E W A A g ! d.s.! ! B B.B.B.B.B.B.B.",
"B.B.B.B.B.B.B.R E E I d E E 6.v.x.0.o b E E E E _ 6 B.B.B.B.B.B.",
"B.B.B.B.B.B.3 F E E ! f E E E 4.4.~ Y ! E E E T ' 6 4 B.B.B.B.B.",
"B.B.B.B.B.3 6 ' C S g T U E ! E E U E E U E U D 6 6 6 = B.B.B.B.",
"B.B.B.B.4 8 6 6 6 6 6 5 X u y y a s s z D D F ' 6 ` v B.B.B.B.B.",
"B.B.B.B.B.x ) 6 6 6 6 9 > - l p 1.q.- : ] 6 ' ' ) ! E B.B.B.B.B.",
"B.B.B.B.U E D 6 8 6 7 w r 2 , n.N.o.; +.$.] x R T E E I B.B.B.B.",
"B.B.B.B.E E U / Z ' e w #.+.3 w.N.< [ &.&.%.F ! U E E E B.B.B.B.",
"B.B.B.d U U U E ! c +.t #.+.{ 6 c.} h.l.l.k.f.I I E E ! B.B.B.B.",
"B.B.B.E E E E E F $.$.$.$.[ ] $.*.h.l.l.l.l.i.I E I I U s B.B.B.",
"B.B.B.E E E ! / %.$.$.$.$.$.] [ *.l.l.l.l.l.p.E E E I d E B.B.B.",
"B.B.B.f f I R / ..$.$.#.$.$.$.[ *.l.l.l.l.l.^ E E E E E y B.B.B.",
"B.B.B.E U U E I c $.+.[ ] 8 8 4 | l.l.l.l.l.p.! E E E U B.B.B.B.",
"B.B.B.! E E E U k - - - - - - - 0 j.j.j.j.j.j.a.g E s B.B.B.B.B.",
"B.B.B.! E E U ~ e. .O.t.r.y.B.B.B.y.y.y.y.y.y.y.B.B.B.B.B.B.B.B.",
"B.B.B.s R ~ E / l.l.l.k.l.u.B.B.B.q | q q q q q q B.B.B.B.B.B.B.",
"B.B.B.B.1 B.B.B.B.u.l.k.0.B.B.B.B.q q q q q q q q B.B.B.B.B.B.B."
};
