/* XPM */
static char *result[] = {
/* columns rows colors chars-per-pixel */
"32 32 13 1 ",
"  c black",
". c #242326",
"X c #774133",
"o c #414044",
"O c #674647",
"+ c #675546",
"@ c #727177",
"# c #835658",
"$ c #8B6E4E",
"% c #918F98",
"& c #B69B83",
"* c white",
"= c None",
/* pixels */
"================================",
"==============oooo==============",
"=============oooooo=============",
"============ooo.....============",
"===========ooo.$$$$.============",
"==========oooo. $X .============",
"===========..o.$$X$.============",
"============.oo$$$$.============",
"=============ooooo..============",
"============oooo...=============",
"===========oooo.oo..============",
"==========oooo..@@o..===========",
"==========ooo..%%%%o..==========",
"=========ooo..%%%%%o..==========",
"=========ooo..%%%%.o..==========",
"=========ooo.o%%%.@o...=========",
"=========oo..o@%.@@oo..=========",
"=========oo..o@.%@@oo..=========",
"=========oo..oo@@&@&o..=========",
"=========oo..oo.....o..=========",
"=========oo..oo@@+@+o..=========",
"=========oo..o%@@@@@o..=========",
"==========o..%**@@@Oo.==========",
"==========o..#O***OOo.==========",
"==========o..#O..##Oo.==========",
"==========o..#O..##Oo.==========",
"==========o..OO..##Oo.==========",
"==========o..O....#Oo.==========",
"==========o..O....#Oo.==========",
"===========..O====#Oo===========",
"============o.====o.============",
"===========o..====o..==========="
};
