/* XPM */
static char *_4ba22c099b1497f88c98cd6a66585f8hq14hkfRy8Jiofm6[] = {
/* columns rows colors chars-per-pixel */
"32 32 5 1 ",
"  c #ADBC3A",
". c #A8A129",
"X c #BD7959",
"o c #D3865F",
"O c white",
/* pixels */
"  ....XXXXXXXXXoooooXXXXXXXXXXXo",
"     .oooooXXXXXXXXXXXoooooXXXXX",
" .  .oooXXooooooXXXXooooXXoooooo",
"  ...ooooooooooooooooooooooooooo",
"   ..oooooXXooooooooooooooXXoooo",
" ....ooooooooooooooooooooooooooo",
".   .XXooooooooooXXXXXXooooooooo",
"   ..XXXXXooooXXXXXXXXXXXXooooXX",
"  ...ooXXXXXXXXXoooooooXXXXXXXXX",
"   ..ooooooooooooooooooooooo...o",
"   ...oooooXXXooooooooooooo.....",
".   ..oooooooooooooXXXooooo. .. ",
" .   ..XoXoooXXXoXXXXXXXoXo...  ",
"  .....oooooooX.XXXoooooooo.    ",
"    ...ooooooX. oooooooooo.    .",
" .   .oXXXXXX.  oooooooXXX....  ",
"  ....XXXXXXX.  ooooXXXXXX.   . ",
"     .oooooooX. XXXXXXooo...    ",
" .  .oooXXooooX.XXXXooooX..... .",
"  ...ooooooooooXooooooooo..    .",
"   ..oooooXXoooooooooooooo.... .",
" ....ooooooooooooooooooooo.ooo..",
".   .XXooooooooooXXXXXXooooooooo",
"   ..XXXXXooooXXXXXXXXXXXXooooXX",
"  ...ooXXXXXXXXXoooooooXXXXXXXXX",
"   ..ooooooooooooooooooooooooooo",
"   ...oooooXXXoooooooooooooXXXoo",
".   ..oooooooooooooXXXoooooooooo",
" .   ..XoXoooXXooXXXXXXXoXoooXXo",
"  .....oooooooooXXXooooooooooooo",
"    ...ooooooooooooooooooooooooo",
" .   .oXXXXXoooooooooooXXXXXoooo"
};
