/* XPM */
static char *result[] = {
/* columns rows colors chars-per-pixel */
"32 32 242 2 ",
"   c black",
".  c #010000",
"X  c #030000",
"o  c #040000",
"O  c #060000",
"+  c #070000",
"@  c #201805",
"#  c #251E0B",
"$  c #291C1F",
"%  c #2E201F",
"&  c #2F221E",
"*  c #30231F",
"=  c #322521",
"-  c #382A27",
";  c #3A2C28",
":  c #3A2C29",
">  c #3B2D29",
",  c #3B2D2A",
"<  c #3C2F2C",
"1  c #3C3425",
"2  c #3D3338",
"3  c #423635",
"4  c #423738",
"5  c #433938",
"6  c #443938",
"7  c #443939",
"8  c #4B4537",
"9  c #676A31",
"0  c #6B6E36",
"q  c #6F635C",
"w  c #857367",
"e  c #877569",
"r  c #87766A",
"t  c #88766A",
"y  c #88776D",
"u  c #897974",
"i  c #907E72",
"p  c #7A8135",
"a  c #7B8236",
"s  c #A3B04A",
"d  c #A4B14B",
"f  c #566DBF",
"g  c #596ABB",
"h  c #5C6EBB",
"j  c #5A6EBD",
"k  c #6D7CB6",
"l  c #3961CF",
"z  c #3E6FCB",
"x  c #3D68CE",
"c  c #3D6BCF",
"v  c #3E6FCE",
"b  c #3E70CF",
"n  c #3D75D0",
"m  c #4760C4",
"M  c #4569C7",
"N  c #4669C7",
"B  c #466AC7",
"V  c #446BC8",
"C  c #446CC8",
"Z  c #456CC8",
"A  c #456DC8",
"S  c #456EC9",
"D  c #566EC0",
"F  c #4170CA",
"G  c #4375CB",
"H  c #4174CC",
"J  c #4176CC",
"K  c #4378CD",
"L  c #4779CC",
"P  c #4F7ECB",
"I  c #4B7DCC",
"U  c #5D7AC1",
"Y  c #3987D5",
"T  c #368DD7",
"R  c #3E88D5",
"E  c #3D8BD4",
"W  c #3E8BD4",
"Q  c #3F8BD4",
"!  c #3E8CD4",
"~  c #3D8FD5",
"^  c #3E8ED5",
"/  c #3A91D7",
"(  c #3E91D6",
")  c #3F93D7",
"_  c #3D95D7",
"`  c #3F94D7",
"'  c #3F97D7",
"]  c #3792D8",
"[  c #3695D9",
"{  c #3697DA",
"}  c #3C97D8",
"|  c #3E96D8",
" . c #3598DA",
".. c #3699DB",
"X. c #379ADB",
"o. c #3998D9",
"O. c #3A98D9",
"+. c #399BDB",
"@. c #3C98D8",
"#. c #3D98D8",
"$. c #3D99D8",
"%. c #3D9AD9",
"&. c #3F9AD8",
"*. c #3F9BD8",
"=. c #3B9CDA",
"-. c #3B9EDA",
";. c #3C9CD9",
":. c #3F9CD9",
">. c #3E9DD9",
",. c #3F9DD9",
"<. c #3E9ED9",
"1. c #3F9FD9",
"2. c #3C9FDB",
"3. c #3F9FDA",
"4. c #3EA3DB",
"5. c #4285D1",
"6. c #418ED4",
"7. c #408FD4",
"8. c #418FD4",
"9. c #428FD4",
"0. c #4090D4",
"q. c #4091D5",
"w. c #4191D5",
"e. c #4193D5",
"r. c #4493D5",
"t. c #4195D6",
"y. c #4098D7",
"u. c #409ED7",
"i. c #4A9BD5",
"p. c #409BD8",
"a. c #409CD8",
"s. c #409DD9",
"d. c #409FD9",
"f. c #439ED8",
"g. c #5A9FD4",
"h. c #609ED1",
"j. c #43A0D7",
"k. c #44A1D7",
"l. c #4BA3D7",
"z. c #4AAAD7",
"x. c #40A0DA",
"c. c #41A0DA",
"v. c #42A2DA",
"b. c #46A1D8",
"n. c #47A2D8",
"m. c #46A3D9",
"M. c #40A4DB",
"N. c #47A6DA",
"B. c #48A3D8",
"V. c #4AA6D9",
"C. c #4CA7D8",
"Z. c #47AADA",
"A. c #4BAAD9",
"S. c #49A8DA",
"D. c #49A9DA",
"F. c #4BABDA",
"G. c #4DA8D8",
"H. c #4CA9D8",
"J. c #4CA8D9",
"K. c #4CACDA",
"L. c #5EA3D5",
"P. c #5EA4D5",
"I. c #5FA4D5",
"U. c #59BBD8",
"Y. c #60A6D5",
"T. c #61A6D5",
"R. c #61A7D5",
"E. c #60A9D6",
"W. c #61A9D6",
"Q. c #61AAD6",
"!. c #61AED8",
"~. c #69AFD9",
"^. c #65B8D7",
"/. c #68B8D6",
"(. c #60BEDA",
"). c #64BDD9",
"_. c #5EC0D7",
"`. c #5EC1D7",
"'. c #5FC1D7",
"]. c #5EC3D7",
"[. c #5FC8D5",
"{. c #61C5D6",
"}. c #62C0DA",
"|. c #64C2DA",
" X c #63C5DB",
".X c #67C6DB",
"XX c #6CC8DA",
"oX c #6DC8DA",
"OX c #6DC9DA",
"+X c #6DCADA",
"@X c #6ECADA",
"#X c #70CCDA",
"$X c #71CEDA",
"%X c #938B9B",
"&X c #948E9E",
"*X c #958F9F",
"=X c #968F9E",
"-X c #968F9F",
";X c #9D969F",
":X c #A89488",
">X c #AE998C",
",X c #B09B8E",
"<X c #B19C90",
"1X c #B29D91",
"2X c #B49F92",
"3X c #AFA29F",
"4X c #B8A59C",
"5X c #9E9AA7",
"6X c #A9A7A3",
"7X c #CDC2BF",
"8X c #B5BBC1",
"9X c #B9BFC5",
"0X c #BCC3C8",
"qX c #BDC3C9",
"wX c #BCC4C9",
"eX c #BDC4C9",
"rX c #BEC5C9",
"tX c #BDC5CA",
"yX c #BEC6CA",
"uX c #8CD5E3",
"iX c #8EDDE4",
"pX c #8FDEE5",
"aX c #95E0E6",
"sX c #98E2E6",
"dX c #99E2E6",
"fX c #99E5E7",
"gX c #B0EBF1",
"hX c #C0C9CD",
"jX c #D4CBCB",
"kX c #D5CCCB",
"lX c #D6CDCC",
"zX c #D6CFCE",
"xX c #D7CFCF",
"cX c #C7D0D5",
"vX c #D8D5D6",
"bX c #E6F7F9",
"nX c #EDFFFF",
"mX c #EFFFFF",
"MX c azure",
"NX c #F3FFFF",
"BX c #FBFFFF",
"VX c white",
/* pixels */
"d p @     . . . . . . . . . . . . . . . . . . . . . .     @ p d ",
"p 0 8 2 4 6 5 5 5 5 5 5 5 5 5 5 5 5 5 5 5 5 5 5 5 5 6 4 2 8 0 p ",
"@ 8 6XvXzXkXjXjXjXjXjXjXjXjXjXjXjXjXjXjXjXjXjXjXjXjXkXzXvX6X8 @ ",
"  2 vXVXBXnXmXMXMXMXMXMXMXMXMXMXMXMXMXMXMXMXMXMXMXmXnXBXVXvX2   ",
"  4 zXBXgXiXaXdXsXsXsXsXsXsXsXsXsXsXsXsXsXsXsXsXdXaXiXgXBXzX4   ",
". 7 lXmXpX[.]._.`.'.'.'.'.'.'.'.'.'.'.'.'.'.'.`._.].[.pXmXlX7 . ",
"  7 xXNXfX{.z.u.j.k.k.k.k.k.k.k.k.k.k.k.k.k.k.j.u.z.{.fXNXxX7   ",
". 3 7XbXuXU.H.b.n.B.B.B.B.B.B.B.B.B.B.B.B.B.B.n.b.H.U.uXbX7X3 . ",
"X < 4XcX~.Z.}.@XoXXXXXXXXXXXXXXXXXXXXXXXXXXXXXoX@X}.Z.~.cX4X< X ",
"o ; >X9Xg.2.(.#X@XOXOXOX+X+X+X+X+X+X+X+XOXOXOX@X#X(.2.g.9X>X; o ",
"o : ,X0XI.X.m.G.C.C.C.J.A.F.F.F.F.F.F.A.J.C.C.C.G.m.X.I.0X,X: o ",
"o : <XrXR. .O.@.} } @._ ~ W W W W W W ~ _ @.} } @.O. .R.rX<X: o ",
"o : <XrXT...=.>.*.&.>.q.K C C V V C C K q.>.&.*.>.=...T.rX<X: o ",
"o : <XrXR.[ ~ 7.y.s.d.8.A m N S S N m A 8.d.s.y.7.~ [ R.rX<X: o ",
"o : <XyXQ.T z F 0.x.x.8.A N 5.e.e.5.N A 8.x.x.0.F z T Q.yX<X: o ",
"o : <XtXE./ I P r.1.3.8.Z Z q.4.4.q.Z Z 8.3.1.r.P I / E.tX<X: o ",
"o : <XwXP.c.^./.l.%.<.6.B M ! -.-.! M B 6.<.%.l./.^.c.P.wX<X: o ",
"o : <XqXL.M. X.XV.#.,.w.G L i.K.K.i.L G w.,.#.V..X XM.L.qX<X: o ",
"o : <XeXY.+.N.V.f.&.p.' ^ i.).$X$X).i.^ ' p.&.f.V.N.+.Y.eX<X: o ",
"o : <XrXR. .o.$.*.a.a.:.;.D.|.$X$X|.D.;.:.a.a.*.$.o. .R.rX<X: o ",
"o : <XrXT...=.<.1.d.d.1.3.v.S.K.K.S.v.3.1.d.d.1.<.=...T.rX<X: o ",
"o > 1XyXW.{ ( 6.8.8.8.8.9.6.! E E ! 6.9.8.8.8.8.6.( { W.yX1X> o ",
"o , 2XhX!.] J B Z A A A A A C C C C A A A A A Z B J ] !.hX2X, o ",
"o - :X8Xh.Y H Z A S S S S S S S S S S S S S S A Z H Y h.8X:X- o ",
"O = i 5XU n Q t.e.e.e.e.e.e.e.e.e.e.e.e.e.e.e.e.t.Q n U 5Xi = O ",
"+ & w %Xg x R | ` ) ) ) ) ) ) ) ) ) ) ) ) ) ) ` | R x g %Xw & + ",
"+ * e &Xf l c b v v v v v v v v v v v v v v v v b c l f &Xe * + ",
"o % y ;Xk D j h h h h h h h h h h h h h h h h h h j D k ;Xy % o ",
"  $ u 3X;X*X-X=X=X=X=X=X=X=X=X=X=X=X=X=X=X=X=X=X=X-X*X;X3Xu $   ",
"# 1 q u y t t r r r r r r r r r r r r r r r r r r t t y u q 1 # ",
"a 9 1 $ % * * * * * * * * * * * * * * * * * * * * * * % $ 1 9 a ",
"s a #   o + + + + + + + + + + + + + + + + + + + + + + o   # a s "
};
